<svg width="24" height="24" viewBox="0 0 24 24" fill="none" xmlns="http://www.w3.org/2000/svg">
<path d="M20.3411 6.48399C21.4199 8.11465 21.9971 10.0258 22.0011 11.981C22.0051 13.9362 21.4359 15.8497 20.3638 17.4848C19.2918 19.1199 17.7639 20.4049 15.9692 21.1807C14.1745 21.9565 12.1917 22.1892 10.2661 21.85" stroke="white" stroke-width="2" stroke-linecap="round" stroke-linejoin="round"/>
<path d="M3.65906 17.516C2.58025 15.8849 2.00336 13.9733 1.99977 12.0177C1.99618 10.0622 2.56606 8.14848 3.63887 6.51345C4.71169 4.87842 6.24036 3.59383 8.03572 2.81863C9.83108 2.04344 11.8143 1.81166 13.7401 2.15199" stroke="#4863F7" stroke-width="2" stroke-linecap="round" stroke-linejoin="round"/>
<path d="M12 15C13.6569 15 15 13.6569 15 12C15 10.3431 13.6569 9 12 9C10.3431 9 9 10.3431 9 12C9 13.6569 10.3431 15 12 15Z" stroke="white" stroke-width="2" stroke-linecap="round" stroke-linejoin="round"/>
<path d="M19 7C20.1046 7 21 6.10457 21 5C21 3.89543 20.1046 3 19 3C17.8954 3 17 3.89543 17 5C17 6.10457 17.8954 7 19 7Z" stroke="white" stroke-width="2" stroke-linecap="round" stroke-linejoin="round"/>
<path d="M5 21C6.10457 21 7 20.1046 7 19C7 17.8954 6.10457 17 5 17C3.89543 17 3 17.8954 3 19C3 20.1046 3.89543 21 5 21Z" stroke="#4863F7" stroke-width="2" stroke-linecap="round" stroke-linejoin="round"/>
</svg>
