<svg width="109" height="24" viewBox="0 0 109 24" fill="none" xmlns="http://www.w3.org/2000/svg">
<path d="M20.3411 6.48399C21.4199 8.11465 21.9971 10.0258 22.0011 11.981C22.0051 13.9362 21.4359 15.8497 20.3638 17.4848C19.2918 19.1199 17.7639 20.4049 15.9692 21.1807C14.1745 21.9565 12.1917 22.1892 10.2661 21.85" stroke="white" stroke-width="2" stroke-linecap="round" stroke-linejoin="round"/>
<path d="M3.65906 17.516C2.58025 15.8849 2.00336 13.9733 1.99977 12.0177C1.99618 10.0622 2.56606 8.14848 3.63887 6.51345C4.71169 4.87842 6.24036 3.59383 8.03572 2.81863C9.83108 2.04344 11.8143 1.81166 13.7401 2.15199" stroke="#4863F7" stroke-width="2" stroke-linecap="round" stroke-linejoin="round"/>
<path d="M12 15C13.6569 15 15 13.6569 15 12C15 10.3431 13.6569 9 12 9C10.3431 9 9 10.3431 9 12C9 13.6569 10.3431 15 12 15Z" stroke="white" stroke-width="2" stroke-linecap="round" stroke-linejoin="round"/>
<path d="M19 7C20.1046 7 21 6.10457 21 5C21 3.89543 20.1046 3 19 3C17.8954 3 17 3.89543 17 5C17 6.10457 17.8954 7 19 7Z" stroke="white" stroke-width="2" stroke-linecap="round" stroke-linejoin="round"/>
<path d="M5 21C6.10457 21 7 20.1046 7 19C7 17.8954 6.10457 17 5 17C3.89543 17 3 17.8954 3 19C3 20.1046 3.89543 21 5 21Z" stroke="#4863F7" stroke-width="2" stroke-linecap="round" stroke-linejoin="round"/>
<path d="M30.0114 17.5V5.86364H34.6023C35.4848 5.86364 36.2367 6.0322 36.858 6.36932C37.4792 6.70265 37.9527 7.16667 38.2784 7.76136C38.608 8.35227 38.7727 9.03409 38.7727 9.80682C38.7727 10.5795 38.6061 11.2614 38.2727 11.8523C37.9394 12.4432 37.4564 12.9034 36.8239 13.233C36.1951 13.5625 35.4337 13.7273 34.5398 13.7273H31.6136V11.7557H34.142C34.6155 11.7557 35.0057 11.6742 35.3125 11.5114C35.6231 11.3447 35.8542 11.1155 36.0057 10.8239C36.161 10.5284 36.2386 10.1894 36.2386 9.80682C36.2386 9.42045 36.161 9.08333 36.0057 8.79545C35.8542 8.50379 35.6231 8.27841 35.3125 8.11932C35.0019 7.95644 34.608 7.875 34.1307 7.875H32.4716V17.5H30.0114ZM40.3707 17.5V5.86364H44.9616C45.8404 5.86364 46.5904 6.02083 47.2116 6.33523C47.8366 6.64583 48.312 7.08712 48.6378 7.65909C48.9673 8.22727 49.1321 8.89583 49.1321 9.66477C49.1321 10.4375 48.9654 11.1023 48.6321 11.6591C48.2988 12.2121 47.8158 12.6364 47.1832 12.9318C46.5545 13.2273 45.7931 13.375 44.8991 13.375H41.8253V11.3977H44.5014C44.9711 11.3977 45.3613 11.3333 45.6719 11.2045C45.9825 11.0758 46.2135 10.8826 46.3651 10.625C46.5204 10.3674 46.598 10.0473 46.598 9.66477C46.598 9.27841 46.5204 8.95265 46.3651 8.6875C46.2135 8.42235 45.9806 8.22159 45.6662 8.08523C45.3556 7.94508 44.9635 7.875 44.4901 7.875H42.831V17.5H40.3707ZM46.6548 12.2045L49.5469 17.5H46.831L44.0014 12.2045H46.6548ZM61.5639 11.6818C61.5639 12.9508 61.3234 14.0303 60.8423 14.9205C60.3651 15.8106 59.7135 16.4905 58.8878 16.9602C58.0658 17.4261 57.1416 17.6591 56.1151 17.6591C55.081 17.6591 54.1529 17.4242 53.331 16.9545C52.509 16.4848 51.8594 15.8049 51.3821 14.9148C50.9048 14.0246 50.6662 12.947 50.6662 11.6818C50.6662 10.4129 50.9048 9.33333 51.3821 8.44318C51.8594 7.55303 52.509 6.875 53.331 6.40909C54.1529 5.93939 55.081 5.70455 56.1151 5.70455C57.1416 5.70455 58.0658 5.93939 58.8878 6.40909C59.7135 6.875 60.3651 7.55303 60.8423 8.44318C61.3234 9.33333 61.5639 10.4129 61.5639 11.6818ZM59.0696 11.6818C59.0696 10.8598 58.9465 10.1667 58.7003 9.60227C58.4579 9.03788 58.1151 8.60985 57.6719 8.31818C57.2287 8.02652 56.7098 7.88068 56.1151 7.88068C55.5204 7.88068 55.0014 8.02652 54.5582 8.31818C54.1151 8.60985 53.7704 9.03788 53.5241 9.60227C53.2817 10.1667 53.1605 10.8598 53.1605 11.6818C53.1605 12.5038 53.2817 13.197 53.5241 13.7614C53.7704 14.3258 54.1151 14.7538 54.5582 15.0455C55.0014 15.3371 55.5204 15.483 56.1151 15.483C56.7098 15.483 57.2287 15.3371 57.6719 15.0455C58.1151 14.7538 58.4579 14.3258 58.7003 13.7614C58.9465 13.197 59.0696 12.5038 59.0696 11.6818ZM63.3864 5.86364H66.4205L69.625 13.6818H69.7614L72.9659 5.86364H76V17.5H73.6136V9.92614H73.517L70.5057 17.4432H68.8807L65.8693 9.89773H65.7727V17.5H63.3864V5.86364ZM78.027 17.5V5.86364H82.6179C83.5005 5.86364 84.2524 6.0322 84.8736 6.36932C85.4948 6.70265 85.9683 7.16667 86.294 7.76136C86.6236 8.35227 86.7884 9.03409 86.7884 9.80682C86.7884 10.5795 86.6217 11.2614 86.2884 11.8523C85.955 12.4432 85.4721 12.9034 84.8395 13.233C84.2107 13.5625 83.4493 13.7273 82.5554 13.7273H79.6293V11.7557H82.1577C82.6312 11.7557 83.0213 11.6742 83.3281 11.5114C83.6387 11.3447 83.8698 11.1155 84.0213 10.8239C84.1766 10.5284 84.2543 10.1894 84.2543 9.80682C84.2543 9.42045 84.1766 9.08333 84.0213 8.79545C83.8698 8.50379 83.6387 8.27841 83.3281 8.11932C83.0175 7.95644 82.6236 7.875 82.1463 7.875H80.4872V17.5H78.027ZM87.9432 7.89205V5.86364H97.5V7.89205H93.9375V17.5H91.5057V7.89205H87.9432ZM105.386 9.21023C105.341 8.75189 105.146 8.39583 104.801 8.14205C104.456 7.88826 103.989 7.76136 103.398 7.76136C102.996 7.76136 102.657 7.81818 102.381 7.93182C102.104 8.04167 101.892 8.19508 101.744 8.39205C101.6 8.58902 101.528 8.8125 101.528 9.0625C101.521 9.27083 101.564 9.45265 101.659 9.60795C101.758 9.76326 101.892 9.89773 102.062 10.0114C102.233 10.1212 102.43 10.2178 102.653 10.3011C102.877 10.3807 103.116 10.4489 103.369 10.5057L104.415 10.7557C104.922 10.8693 105.388 11.0208 105.812 11.2102C106.237 11.3996 106.604 11.6326 106.915 11.9091C107.225 12.1856 107.466 12.5114 107.636 12.8864C107.811 13.2614 107.9 13.6913 107.903 14.1761C107.9 14.8883 107.718 15.5057 107.358 16.0284C107.002 16.5473 106.487 16.9508 105.812 17.2386C105.142 17.5227 104.333 17.6648 103.386 17.6648C102.447 17.6648 101.629 17.5208 100.932 17.233C100.239 16.9451 99.697 16.5189 99.3068 15.9545C98.9205 15.3864 98.7178 14.6837 98.6989 13.8466H101.08C101.106 14.2367 101.218 14.5625 101.415 14.8239C101.616 15.0814 101.883 15.2765 102.216 15.4091C102.553 15.5379 102.934 15.6023 103.358 15.6023C103.775 15.6023 104.136 15.5417 104.443 15.4205C104.754 15.2992 104.994 15.1307 105.165 14.9148C105.335 14.6989 105.42 14.4508 105.42 14.1705C105.42 13.9091 105.343 13.6894 105.188 13.5114C105.036 13.3333 104.813 13.1818 104.517 13.0568C104.225 12.9318 103.867 12.8182 103.443 12.7159L102.176 12.3977C101.195 12.1591 100.42 11.786 99.8523 11.2784C99.2841 10.7708 99.0019 10.0871 99.0057 9.22727C99.0019 8.52273 99.1894 7.9072 99.5682 7.38068C99.9508 6.85417 100.475 6.44318 101.142 6.14773C101.809 5.85227 102.566 5.70455 103.415 5.70455C104.278 5.70455 105.032 5.85227 105.676 6.14773C106.324 6.44318 106.828 6.85417 107.188 7.38068C107.547 7.9072 107.733 8.51705 107.744 9.21023H105.386Z" fill="white"/>
</svg>
