<svg width="20" height="21" viewBox="0 0 20 21" fill="none" xmlns="http://www.w3.org/2000/svg">
<path d="M15.8334 5.50003V17.1667C15.8334 17.6087 15.6578 18.0326 15.3453 18.3452C15.0327 18.6578 14.6088 18.8334 14.1667 18.8334H5.83341C5.39139 18.8334 4.96746 18.6578 4.6549 18.3452C4.34234 18.0326 4.16675 17.6087 4.16675 17.1667V5.50003" stroke="#FF5C5C" stroke-linecap="round" stroke-linejoin="round"/>
<path d="M2.5 5.50003H17.5" stroke="#FF5C5C" stroke-linecap="round" stroke-linejoin="round"/>
<path d="M6.66675 5.50002V3.83335C6.66675 3.39133 6.84234 2.9674 7.1549 2.65484C7.46746 2.34228 7.89139 2.16669 8.33341 2.16669H11.6667C12.1088 2.16669 12.5327 2.34228 12.8453 2.65484C13.1578 2.9674 13.3334 3.39133 13.3334 3.83335V5.50002" stroke="#FF5C5C" stroke-linecap="round" stroke-linejoin="round"/>
</svg>
